<svg id="Multicolor" xmlns="http://www.w3.org/2000/svg" viewBox="0 0 100 112"><defs><style>.cls-1{fill:#e8f4fa;}.cls-2,.cls-22{fill:#fff;}.cls-3,.cls-8{fill:none;}.cls-3{stroke:#4f4a45;}.cls-13,.cls-17,.cls-21,.cls-22,.cls-26,.cls-3,.cls-31,.cls-32,.cls-33,.cls-34,.cls-35,.cls-36,.cls-37,.cls-4,.cls-5,.cls-8{stroke-linecap:round;stroke-linejoin:round;}.cls-4,.cls-9{fill:#724f3d;}.cls-13,.cls-17,.cls-21,.cls-22,.cls-26,.cls-31,.cls-32,.cls-33,.cls-34,.cls-35,.cls-36,.cls-37,.cls-4,.cls-5,.cls-8{stroke:#191816;}.cls-11,.cls-5{fill:#d18660;}.cls-12,.cls-6{fill:#191816;}.cls-7{fill:#bd704a;}.cls-10{fill:#a86c4d;}.cls-12{opacity:0.15;}.cls-13{fill:#525252;}.cls-14{fill:#9ceb60;}.cls-15,.cls-17{fill:#6dd627;}.cls-16{fill:#c8ffa1;}.cls-18{fill:#00b8f0;}.cls-19{fill:#009fd9;}.cls-20{fill:#f0f0f0;}.cls-21{fill:#ffcebf;}.cls-23{fill:#ffdf3d;}.cls-24{fill:#ffef9e;}.cls-25{fill:#ffb59e;}.cls-26,.cls-29{fill:#adc4d9;}.cls-27,.cls-32{fill:#ff6242;}.cls-28{fill:#ff866e;}.cls-30{fill:#c0dceb;}.cls-31{fill:#00f5bc;}.cls-33{fill:#ff6196;}.cls-34{fill:#bf8df2;}.cls-35{fill:#ff8a14;}.cls-36{fill:#fff48c;}.cls-37{fill:#947746;}</style></defs><title>39- cooperate-victory-flag-goal-reach</title><g id="Background"><g id="New_Symbol_9-29" data-name="New Symbol 9"><path class="cls-1" d="M90,56A40,40,0,1,0,13.56,72.5H86.44A39.85,39.85,0,0,0,90,56Z"/><path class="cls-2" d="M13.56,72.5a40,40,0,0,0,72.88,0Z"/><line class="cls-3" x1="11" y1="72.5" x2="89" y2="72.5"/><line class="cls-3" x1="6.5" y1="72.5" x2="9" y2="72.5"/><line class="cls-3" x1="91" y1="72.5" x2="93.5" y2="72.5"/></g></g><g id="Scene"><path class="cls-4" d="M72.46,51l-.36-9.78-.23,0a6,6,0,0,1-11.74,0l-.23,0L59.54,51a1,1,0,0,0,1,1H71.46A1,1,0,0,0,72.46,51Z"/><path class="cls-5" d="M73,40a1.23,1.23,0,0,0-1-1.2V38a6,6,0,0,0-12,0v.8A1.23,1.23,0,0,0,59,40a1.25,1.25,0,0,0,1.13,1.23,6,6,0,0,0,11.74,0A1.25,1.25,0,0,0,73,40Z"/><path class="cls-6" d="M63.75,38a.75.75,0,1,0,.75.75.76.76,0,0,0-.75-.75Z"/><path class="cls-6" d="M68.25,38a.75.75,0,1,0,.75.75.76.76,0,0,0-.75-.75Z"/><circle class="cls-7" cx="62.75" cy="40.75" r="0.75"/><circle class="cls-7" cx="69.25" cy="40.75" r="0.75"/><path class="cls-8" d="M64.5,42.55a2.72,2.72,0,0,0,3,0"/><path class="cls-9" d="M68.92,31a1,1,0,0,0-.84.59,2.35,2.35,0,0,1,.42,1.21,4,4,0,0,1-.5,2.14c0,.73,2.19,3,3.45,3.93a.49.49,0,0,0,.78-.36L72.58,35A3.6,3.6,0,0,0,68.92,31Z"/><path class="cls-10" d="M68.92,31a1,1,0,0,0-.84.59,2.35,2.35,0,0,1,.42,1.21v.34A1,1,0,0,1,69,33a3.58,3.58,0,0,1,3.49,2.81l.09-.83A3.6,3.6,0,0,0,68.92,31Z"/><path class="cls-8" d="M68.92,31a1,1,0,0,0-.84.59,2.35,2.35,0,0,1,.42,1.21,4,4,0,0,1-.5,2.14c0,.73,2.19,3,3.45,3.93a.49.49,0,0,0,.78-.36L72.58,35A3.6,3.6,0,0,0,68.92,31Z"/><path class="cls-9" d="M66,30.5a2.49,2.49,0,0,1,2.5,2.3c.23,5.16-8.8,6.73-9.82,4.7-.44-.89-.07-2.24,1.14-2.09a.28.28,0,0,0,.31-.32C60,32.32,62.66,30.5,66,30.5Z"/><path class="cls-10" d="M65.75,31.88a2.49,2.49,0,0,1,2.5,2.3v.22a4.17,4.17,0,0,0,.25-1.6A2.49,2.49,0,0,0,66,30.5c-3.25,0-5.91,1.72-5.87,4.37C60.86,33,63.11,31.88,65.75,31.88Z"/><path class="cls-8" d="M66,30.5a2.49,2.49,0,0,1,2.5,2.3c.23,5.16-8.8,6.73-9.82,4.7-.44-.89-.07-2.24,1.14-2.09a.28.28,0,0,0,.31-.32C60,32.32,62.66,30.5,66,30.5Z"/><polygon class="cls-11" points="62 76.5 62.5 85 69.5 85 70 76.5 62 76.5"/><polygon class="cls-7" points="69.82 79.5 70 76.5 62 76.5 62.18 79.5 69.82 79.5"/><polygon class="cls-8" points="62 76.5 62.5 85 69.5 85 70 76.5 62 76.5"/><line class="cls-8" x1="66" y1="76.5" x2="66" y2="85"/><ellipse class="cls-12" cx="66" cy="85.5" rx="13" ry="1.5"/><path class="cls-13" d="M71.23,85a1,1,0,0,0,.9-1.45A3,3,0,0,0,69.5,82H69a3,3,0,0,0-3,3Z"/><path class="cls-13" d="M66,85a3,3,0,0,0-3-3h-.5a3,3,0,0,0-2.63,1.55,1,1,0,0,0,.9,1.45Z"/><path class="cls-14" d="M70,76.5a1,1,0,0,0,1-1l.49-9h-11l.49,9a1,1,0,0,0,1,1Z"/><path class="cls-15" d="M71.36,69l.14-2.5h-11l.14,2.5,1.88,1.2a1,1,0,0,0,1,0l2-1a1,1,0,0,1,.9,0l2,1a1,1,0,0,0,1,0Z"/><path class="cls-8" d="M70,76.5a1,1,0,0,0,1-1l.49-9h-11l.49,9a1,1,0,0,0,1,1Z"/><path class="cls-14" d="M66.05,48a9.43,9.43,0,0,1,9.45,9.5V67a.43.43,0,0,1-.45.5H71.5v-1L69.57,68a1,1,0,0,1-1.18,0L66,66.5l-2.39,1.59a1,1,0,0,1-1.18,0L60.5,66.5V54.76a3,3,0,0,0-2.53-3C49.12,50.28,50.05,41,50.05,41h4c0,7.5,6.5,7,6.5,7Z"/><path class="cls-16" d="M60.55,49.74h5.5a9.5,9.5,0,0,1,9.45,8.55V57.5A9.43,9.43,0,0,0,66.05,48h-5.5s-6.5.5-6.5-7h-1.5C52.55,49.5,60.55,49.74,60.55,49.74Z"/><path class="cls-8" d="M66.05,48a9.43,9.43,0,0,1,9.45,9.5V67a.43.43,0,0,1-.45.5H71.5v-1L69.57,68a1,1,0,0,1-1.18,0L66,66.5l-2.39,1.59a1,1,0,0,1-1.18,0L60.5,66.5V54.76a3,3,0,0,0-2.53-3C49.12,50.28,50.05,41,50.05,41h4c0,7.5,6.5,7,6.5,7Z"/><line class="cls-8" x1="71.5" y1="56" x2="71.5" y2="66.5"/><path class="cls-5" d="M75,69.25a1.75,1.75,0,0,1-3.5,0V67.5H75Z"/><line class="cls-8" x1="66" y1="52.5" x2="66" y2="66.5"/><path class="cls-5" d="M66.05,48H62.5L66,52.5l3.42-3.88A9.46,9.46,0,0,0,66.05,48Z"/><path class="cls-17" d="M69.15,53.35l3.07-3.07a9.52,9.52,0,0,0-2.8-1.66L66.3,52.16l1.5,1.26A1,1,0,0,0,69.15,53.35Z"/><path class="cls-17" d="M60.5,48l2,4.87a1,1,0,0,0,1.48.44l1.72-1.16L62.5,48h-2Z"/><path class="cls-18" d="M42.5,66.5V84a.93.93,0,0,1-1,1H39a1,1,0,0,1-1-1l-.37-11.41a1.61,1.61,0,0,0-3.21-.07L34.08,84a1,1,0,0,1-1,1H30.55a1.08,1.08,0,0,1-1.05-1V66.5Z"/><rect class="cls-19" x="29.5" y="66.5" width="13" height="3"/><path class="cls-8" d="M42.5,66.5V84a.93.93,0,0,1-1,1H39a1,1,0,0,1-1-1l-.37-11.41a1.61,1.61,0,0,0-3.21-.07L34.08,84a1,1,0,0,1-1,1H30.55a1.08,1.08,0,0,1-1.05-1V66.5Z"/><path class="cls-20" d="M25.5,58.5V67a.54.54,0,0,0,.55.5H29.5v-1h13V54.76a3.08,3.08,0,0,1,2.62-3C54,50.28,53.54,41,53.54,41h-4c0,7.5-7,7-7,7H36.05A10.54,10.54,0,0,0,25.5,58.5Z"/><path class="cls-2" d="M36.59,50H43a5.7,5.7,0,0,0,2.34-.48A9.21,9.21,0,0,0,51,41H49.54c0,7.5-7,7-7,7H36.05A10.54,10.54,0,0,0,25.5,58.5v2.29A11.08,11.08,0,0,1,36.59,50Z"/><path class="cls-8" d="M25.5,58.5V67a.54.54,0,0,0,.55.5H29.5v-1h13V54.76a3.08,3.08,0,0,1,2.62-3C54,50.28,53.54,41,53.54,41h-4c0,7.5-7,7-7,7H36.05A10.54,10.54,0,0,0,25.5,58.5Z"/><line class="cls-8" x1="29.5" y1="56" x2="29.5" y2="66.5"/><path class="cls-21" d="M26,69.25a1.76,1.76,0,0,0,2.32,1.66,1.79,1.79,0,0,0,1.18-1.73V67.5H26Z"/><path class="cls-21" d="M53.05,39.25a1.75,1.75,0,0,0-3.5,0V41h3.5Z"/><path class="cls-22" d="M36.05,51,38,52.94a1,1,0,0,0,1.63-.32L41.55,48h-2Z"/><path class="cls-17" d="M36.05,51l-1.86,8.36a2,2,0,0,0,.12,1.24l1.28,2.87a.5.5,0,0,0,.91,0l1.28-2.87a2,2,0,0,0,.12-1.24Z"/><path class="cls-21" d="M32.84,48.5a10.62,10.62,0,0,1,3.21-.5h3.5l-3.5,3Z"/><path class="cls-22" d="M36.05,51l-1.8,2.16a1,1,0,0,1-1.48.07L29.7,50.15a10.37,10.37,0,0,1,3.14-1.65l1.52,1.19Z"/><g id="_Group_" data-name="&lt;Group&gt;"><path class="cls-23" d="M43.24,37a7.2,7.2,0,0,1-14.4,0c0-4.43,2.52-7.8,4.8-7.8C35.47,32.1,43.24,28.62,43.24,37Z"/><path class="cls-24" d="M33.64,31.6c1.72,2.73,8.69-.18,9.52,6.43a7,7,0,0,0,.08-1c0-8.38-7.77-4.9-9.6-7.8-2.28,0-4.8,3.37-4.8,7.8a7.19,7.19,0,0,0,.09,1C29.37,34.3,31.6,31.6,33.64,31.6Z"/><path class="cls-8" d="M43.24,37a7.2,7.2,0,0,1-14.4,0c0-4.43,2.52-7.8,4.8-7.8C35.47,32.1,43.24,28.62,43.24,37Z"/><path class="cls-21" d="M42.05,38.8l-1.21.6-.87-3a1.2,1.2,0,0,0-1.4-.85,10.82,10.82,0,0,1-5.06,0,1.19,1.19,0,0,0-1.4.85l-.87,3-1.19-.6c-1.72,0-1.6,3,.3,3h0a6,6,0,0,0,11.39,0h0C43.64,41.8,43.76,38.8,42.05,38.8Z"/><path class="cls-6" d="M34.25,38a.75.75,0,1,0,.75.75.76.76,0,0,0-.75-.75Z"/><path class="cls-6" d="M37.75,38a.75.75,0,1,0,.75.75.76.76,0,0,0-.75-.75Z"/><circle class="cls-25" cx="32.6" cy="40.6" r="0.6"/><circle class="cls-25" cx="39.65" cy="40.6" r="0.6"/><path class="cls-8" d="M34.55,42.55a2.72,2.72,0,0,0,3,0"/></g><path class="cls-26" d="M54.9,47.93a1,1,0,0,1-1.9.62L41.78,14.34l1.9-.62Z"/><path class="cls-27" d="M56.27,26.43a2,2,0,0,0-2.52-1.28l-7.61,2.5L41.78,14.34l7.6-2.49a2,2,0,0,1,2.53,1.28Z"/><path class="cls-27" d="M51.91,13.13a2,2,0,0,0,2.52,1.27l6.65-2.18a1,1,0,0,1,1.26.64l3.74,11.4a1,1,0,0,1-.64,1.27l-6.65,2.18a2,2,0,0,1-2.52-1.28Z"/><path class="cls-28" d="M49.38,11.85l-7.6,2.49.78,2.38,7.6-2.49a2,2,0,0,1,2.53,1.27l-.78-2.37A2,2,0,0,0,49.38,11.85Z"/><path class="cls-28" d="M61.08,12.22,54.43,14.4a2,2,0,0,1-2.52-1.27l.78,2.37a2,2,0,0,0,2.52,1.28l6.65-2.18a1,1,0,0,1,1.26.64l-.78-2.38A1,1,0,0,0,61.08,12.22Z"/><path class="cls-8" d="M56.27,26.43a2,2,0,0,0-2.52-1.28l-7.61,2.5L41.78,14.34l7.6-2.49a2,2,0,0,1,2.53,1.28Z"/><path class="cls-8" d="M51.91,13.13a2,2,0,0,0,2.52,1.27l6.65-2.18a1,1,0,0,1,1.26.64l3.74,11.4a1,1,0,0,1-.64,1.27l-6.65,2.18a2,2,0,0,1-2.52-1.28Z"/><path class="cls-29" d="M44,11.51a2,2,0,1,1-2.52-1.28A2,2,0,0,1,44,11.51Z"/><path class="cls-30" d="M40.24,12.85a2,2,0,0,1,3.73,0,2,2,0,0,0,0-1.34,2,2,0,1,0-3.8,1.24Z"/><path class="cls-8" d="M44,11.51a2,2,0,1,1-2.52-1.28A2,2,0,0,1,44,11.51Z"/><path class="cls-21" d="M50.54,37.08a2.31,2.31,0,0,0-1.22,3.24,2.42,2.42,0,0,0,3,1l.55-.21a1.53,1.53,0,0,0,.91-1.94l-.5-1.45a1.54,1.54,0,0,0-2-.93Z"/><path class="cls-5" d="M52,39.1A2.31,2.31,0,0,1,54,42a2.41,2.41,0,0,1-2.66,1.7l-.59-.07a1.53,1.53,0,0,1-1.34-1.67l.15-1.53A1.53,1.53,0,0,1,51.24,39Z"/><path class="cls-31" d="M75.09,19.75a6.33,6.33,0,0,1-5.2,2.95l-1.84-3.25a6.36,6.36,0,0,0,5.2-2.95Z"/><path class="cls-32" d="M54,61a6.34,6.34,0,0,1-.73,5.93l-3.71-.45a6.39,6.39,0,0,0,.73-5.94Z"/><path class="cls-33" d="M32,25.63a6.37,6.37,0,0,1-1.26-5.84L34.44,19a6.33,6.33,0,0,0,1.26,5.85Z"/><path class="cls-33" d="M86.39,74.5a6.35,6.35,0,0,1-1.25-5.85l3.65-.78a6.32,6.32,0,0,0,1.26,5.84Z"/><path class="cls-34" d="M16.46,64a6.37,6.37,0,0,1,3.59,4.78l-3,2.25a6.39,6.39,0,0,0-3.59-4.79Z"/><path class="cls-34" d="M84.14,55.5a6.35,6.35,0,0,0-3.59,4.78l3,2.25a6.36,6.36,0,0,1,3.59-4.79Z"/><path class="cls-35" d="M22.85,35.72a6.33,6.33,0,0,1-6,.56l-.35-3.72A6.36,6.36,0,0,0,22.5,32Z"/><path class="cls-35" d="M88.85,46.22a6.33,6.33,0,0,1-5.95.56l-.35-3.72a6.36,6.36,0,0,0,6-.56Z"/><path class="cls-36" d="M86.35,32.43a6.37,6.37,0,0,1-5.67-1.93L81.88,27a6.37,6.37,0,0,0,5.67,1.93Z"/><path class="cls-36" d="M13.55,51.58A6.33,6.33,0,0,1,17.43,47l2.84,2.43A6.37,6.37,0,0,0,16.39,54Z"/><ellipse class="cls-12" cx="36.05" cy="85.5" rx="13" ry="1.5"/><path class="cls-37" d="M29.32,85a1,1,0,0,1-.9-1.45A3,3,0,0,1,31.05,82h.5a3,3,0,0,1,2.62,1.55A1,1,0,0,1,33.28,85Z"/><path class="cls-37" d="M38.82,85a1,1,0,0,1-.9-1.45A3,3,0,0,1,40.55,82h.5a3,3,0,0,1,2.62,1.55A1,1,0,0,1,42.78,85Z"/></g></svg>